<?xml version="1.0" encoding="utf-8"?>
<svg viewBox="-1.532 96.489 503.829 307.788" xmlns="http://www.w3.org/2000/svg">
  <defs/>
  <rect x="-0.023" y="98.499" width="500.046" height="303.002" style="fill: rgb(63, 63, 255); stroke: rgb(63, 63, 255);" rx="40.796" ry="40.796"/>
  <path d="M 102.041 164.863 L 102.041 187.135 L 123.942 187.135 L 123.942 346.008 L 102.041 346.008 L 102.041 368.651 L 168.114 368.651 L 168.114 346.008 L 146.214 346.008 L 146.214 187.135 L 168.114 187.135 L 168.114 164.863 Z M 280.178 277.707 L 280.178 187.135 L 352.562 187.135 L 390.796 224.255 L 390.796 238.731 L 352.191 277.707 Z M 280.178 300.722 L 357.017 300.722 C 359.986 300.722 362.585 298.866 364.812 296.639 L 409.727 250.981 C 411.954 248.754 412.697 246.155 412.697 243.186 L 412.697 219.429 C 412.697 216.459 411.583 214.232 409.356 212.005 L 364.812 167.832 C 362.585 165.605 359.986 164.863 357.017 164.863 L 258.277 164.863 L 258.277 368.651 L 280.178 368.651 Z M 479.845 241.33 L 479.845 210.149 L 457.573 210.149 L 457.573 244.299 C 457.573 246.527 457.945 248.011 459.058 249.867 L 526.245 363.083 C 528.473 366.795 531.813 368.651 535.897 368.651 C 539.98 368.651 543.321 366.795 545.548 363.083 L 613.477 248.754 C 614.591 246.898 614.962 245.413 614.962 243.186 L 614.962 210.149 L 592.69 210.149 L 592.69 240.216 L 535.897 335.615 Z M 791.648 275.109 L 791.648 141.477 L 759.353 141.477 C 756.384 141.477 753.043 142.962 751.558 144.818 L 662.47 235.391 C 660.243 237.618 659.129 240.959 659.129 243.186 L 659.129 284.76 C 659.129 290.699 664.326 295.896 670.265 295.896 L 769.376 295.896 L 769.376 377.189 L 791.648 377.189 L 791.648 295.896 L 813.548 295.896 L 813.548 275.109 Z M 769.376 275.109 L 680.288 275.109 L 680.288 248.754 L 764.179 163.749 L 769.376 163.749 Z" transform="matrix(0.538941, 0, 0, 0.538941, 14.756022, 101.830376)" style="fill: rgb(255, 255, 255);"/>
  <path transform="matrix(0.538941, 0, 0, 0.538941, 14.756022, 101.830376)" style="fill: rgb(255, 255, 255);"/>
</svg>