<?xml version="1.0" encoding="utf-8"?>
<svg viewBox="-1.532 96.489 503.829 307.788" xmlns="http://www.w3.org/2000/svg">
  <defs/>
  <rect x="-0.023" y="98.499" width="500.046" height="303.002" style="fill: rgb(171, 68, 191); stroke: color(srgb-linear 0.409 0.058 0.522);" rx="40.796" ry="40.796"/>
  <path d="M -142.731 219.439 L -142.731 221.119 L -141.079 221.119 L -141.079 233.103 L -142.731 233.103 L -142.731 234.811 L -137.747 234.811 L -137.747 233.103 L -139.399 233.103 L -139.399 221.119 L -137.747 221.119 L -137.747 219.439 Z M -129.292 227.951 L -129.292 221.119 L -123.832 221.119 L -120.948 223.919 L -120.948 225.011 L -123.86 227.951 Z M -129.292 229.687 L -123.496 229.687 C -123.272 229.687 -123.076 229.547 -122.908 229.379 L -119.52 225.935 C -119.352 225.767 -119.296 225.571 -119.296 225.347 L -119.296 223.555 C -119.296 223.331 -119.38 223.163 -119.548 222.995 L -122.908 219.663 C -123.076 219.495 -123.272 219.439 -123.496 219.439 L -130.944 219.439 L -130.944 234.811 L -129.292 234.811 Z M -114.227 225.207 L -114.227 222.855 L -115.907 222.855 L -115.907 225.431 C -115.907 225.599 -115.879 225.711 -115.795 225.851 L -110.727 234.391 C -110.559 234.671 -110.307 234.811 -109.999 234.811 C -109.691 234.811 -109.439 234.671 -109.271 234.391 L -104.147 225.767 C -104.063 225.627 -104.035 225.515 -104.035 225.347 L -104.035 222.855 L -105.715 222.855 L -105.715 225.123 L -109.999 232.319 Z M -100.704 230.947 C -100.704 230.947 -100.48 231.479 -100.452 231.507 L -97.008 234.923 C -96.84 235.091 -96.616 235.175 -96.42 235.175 L -93.368 235.175 C -93.144 235.175 -92.92 235.063 -92.78 234.923 L -89.308 231.451 C -89.14 231.283 -89.056 231.059 -89.056 230.863 L -89.056 228.847 C -89.056 228.623 -89.168 228.399 -89.308 228.259 L -92.64 224.871 C -92.808 224.703 -93.032 224.619 -93.228 224.619 L -96.308 224.619 C -96.532 224.619 -96.756 224.731 -96.896 224.871 L -98.996 226.971 L -98.996 222.351 L -95.244 218.599 L -96.448 217.423 L -100.452 221.427 C -100.62 221.595 -100.704 221.819 -100.704 222.015 L -100.704 230.919 Z M -98.996 229.267 L -95.972 226.215 L -93.592 226.215 L -90.736 229.099 L -90.736 230.499 L -93.704 233.495 L -96.084 233.495 L -98.996 230.555 Z" transform="matrix(7.303054, 0, 0, 7.303054, 1108.511597, -1412.83374)" style="fill: rgb(255, 255, 255);"/>
  <path transform="matrix(7.303054, 0, 0, 7.303054, 1108.511597, -1412.83374)" style="fill: rgb(255, 255, 255);"/>
</svg>