<?xml version="1.0" encoding="utf-8"?>
<svg viewBox="-1.532 96.489 503.829 307.788" xmlns="http://www.w3.org/2000/svg">
  <defs/>
  <rect x="-0.023" y="98.499" width="500.046" height="303.002" style="stroke: rgb(255, 166, 0); fill: rgb(255, 166, 0);" rx="40.796" ry="40.796"/>
  <path transform="matrix(0.538941, 0, 0, 0.538941, 14.756022, 101.830376)" style="fill: rgb(255, 255, 255);"/>
  <text style="white-space: pre; fill: rgb(51, 51, 51); font-family: Arial, sans-serif; font-size: 28px;" x="227.725" y="235.837"> </text>
  <path d="M 126.758 236.558 L 156.53 204.768 L 156.53 317.294 L 171.668 317.294 L 171.668 186.603 C 171.668 183.323 169.902 180.547 166.874 179.286 C 166.496 179.16 166.243 179.034 165.991 179.034 C 165.36 179.034 164.73 179.286 164.099 179.286 C 162.333 179.286 160.314 179.791 158.801 181.304 L 118.685 222.429 L 79.578 181.809 C 78.065 180.295 76.046 179.286 74.28 179.286 C 73.271 179.286 72.514 179.538 71.505 180.043 C 68.477 181.304 66.711 183.827 66.711 187.107 L 66.711 317.294 L 81.849 317.294 L 81.849 205.273 L 111.368 236.558 L 111.368 255.733 L 126.758 255.733 Z M 217.828 268.348 L 292.761 268.348 L 292.761 317.546 L 307.899 317.546 L 307.899 232.773 C 307.899 231.512 307.646 229.241 305.88 227.475 L 260.719 181.557 C 259.457 180.295 257.439 179.286 254.916 179.286 C 253.402 179.286 251.384 179.791 249.87 181.557 L 205.213 227.223 C 204.456 227.98 202.942 229.998 202.942 232.269 L 202.942 317.546 L 217.828 317.546 Z M 218.08 254.219 L 218.08 235.549 L 255.168 197.956 L 292.761 235.801 L 292.761 254.219 Z M 444.141 196.442 L 428.498 181.052 C 426.732 179.286 424.461 179.286 423.2 179.286 L 392.672 179.286 C 390.149 179.286 388.13 180.547 387.373 181.304 L 341.202 227.223 C 339.436 228.989 339.184 231.26 339.184 232.521 L 339.184 264.311 C 339.184 266.834 340.698 268.852 341.455 269.609 L 387.626 315.023 C 389.392 316.789 391.662 317.546 392.924 317.546 L 423.2 317.546 C 425.723 317.546 427.741 316.285 428.751 315.276 L 444.141 299.128 L 433.04 288.532 L 419.92 302.408 L 395.952 302.408 L 354.322 261.031 L 354.322 235.549 L 395.699 194.172 L 420.172 194.172 L 433.544 207.039 Z" style="fill: rgb(255, 255, 255);"/>
</svg>