<?xml version="1.0" encoding="utf-8"?>
<svg viewBox="-1.532 96.489 503.829 307.788" xmlns="http://www.w3.org/2000/svg">
  <defs/>
  <rect x="-0.023" y="98.499" width="500.046" height="303.002" style="fill: rgb(108, 108, 255); stroke: rgb(108, 108, 255);" rx="40.796" ry="40.796"/>
  <path d="M 84.791 240.405 L 109.843 213.655 L 109.843 308.341 L 122.581 308.341 L 122.581 198.37 C 122.581 195.61 121.095 193.274 118.547 192.213 C 118.229 192.107 118.016 192.001 117.804 192.001 C 117.273 192.001 116.743 192.213 116.212 192.213 C 114.726 192.213 113.027 192.637 111.754 193.911 L 77.998 228.516 L 45.091 194.336 C 43.818 193.062 42.119 192.213 40.633 192.213 C 39.784 192.213 39.147 192.425 38.298 192.85 C 35.75 193.911 34.264 196.034 34.264 198.794 L 34.264 308.341 L 47.002 308.341 L 47.002 214.08 L 71.841 240.405 L 71.841 256.54 L 84.791 256.54 L 84.791 240.405 Z M 161.427 267.155 L 224.48 267.155 L 224.48 308.553 L 237.218 308.553 L 237.218 237.22 C 237.218 236.159 237.006 234.248 235.52 232.762 L 197.518 194.124 C 196.456 193.062 194.758 192.213 192.635 192.213 C 191.361 192.213 189.663 192.637 188.389 194.124 L 150.812 232.55 C 150.175 233.187 148.901 234.885 148.901 236.796 L 148.901 308.553 L 161.427 308.553 L 161.427 267.155 Z M 161.639 255.266 L 161.639 239.556 L 192.847 207.923 L 224.48 239.768 L 224.48 255.266 L 161.639 255.266 Z M 338.701 213.231 L 338.701 217.477 L 351.864 217.477 L 351.864 210.683 C 351.864 208.985 351.227 207.498 349.953 206.225 L 337.64 193.911 C 336.366 192.637 334.88 192.213 333.182 192.213 L 283.503 192.213 C 281.805 192.213 280.319 192.637 279.045 193.911 L 266.095 206.862 C 264.821 208.135 264.184 209.621 264.184 211.32 L 264.184 224.058 C 264.184 226.181 265.033 228.092 266.944 229.365 L 338.701 279.893 L 338.701 286.474 L 330.209 295.815 L 285.414 295.815 L 276.285 286.899 L 276.285 282.865 L 263.547 282.865 L 263.547 289.446 C 263.547 291.145 264.184 292.631 265.458 293.905 L 278.408 306.855 C 279.682 308.129 281.168 308.766 282.867 308.766 L 332.969 308.766 C 334.88 308.766 336.366 307.704 337.64 306.43 L 349.741 293.268 C 350.803 291.994 351.439 290.72 351.439 289.022 L 351.439 276.496 C 351.439 274.373 350.59 272.462 348.68 271.188 L 276.922 220.661 L 276.922 213.867 L 286.051 204.739 L 330.634 204.739 L 338.701 213.231 Z M 391.559 279.044 L 409.817 259.3 L 453.763 304.52 L 453.763 308.553 L 466.501 308.553 L 466.501 301.972 C 466.501 300.274 465.864 298.787 464.591 297.514 L 418.734 250.383 L 464.378 203.252 C 465.652 201.979 466.289 200.493 466.289 198.794 L 466.289 192.213 L 453.763 192.213 L 453.763 196.247 L 391.559 260.786 L 391.559 192.213 L 378.184 192.213 L 378.184 308.553 L 391.559 308.553 L 391.559 279.044 Z" style="fill: rgb(255, 255, 255);"/>
</svg>