<?xml version="1.0" encoding="utf-8"?>
<svg viewBox="-1.532 96.489 503.829 307.788" xmlns="http://www.w3.org/2000/svg">
  <defs/>
  <rect x="-0.023" y="98.499" width="500.046" height="303.002" style="fill: rgb(30, 255, 0); stroke: rgb(30, 255, 0);" rx="40.796" ry="40.796"/>
  <path d="M 38.556 307.298 L 50.834 307.298 L 50.834 211.988 L 112.848 276.083 L 112.848 307.298 L 125.126 307.298 L 125.126 193.467 L 112.848 193.467 L 112.848 256.938 L 50.834 193.467 L 38.556 193.467 L 38.556 307.298 Z M 163.189 266.927 L 224.995 266.927 L 224.995 307.506 L 237.481 307.506 L 237.481 237.584 C 237.481 236.544 237.273 234.671 235.816 233.214 L 198.566 195.34 C 197.526 194.3 195.861 193.467 193.78 193.467 C 192.531 193.467 190.866 193.883 189.618 195.34 L 152.784 233.006 C 152.16 233.631 150.911 235.295 150.911 237.168 L 150.911 307.506 L 163.189 307.506 L 163.189 266.927 Z M 163.397 255.273 L 163.397 239.874 L 193.988 208.867 L 224.995 240.082 L 224.995 255.273 L 163.397 255.273 Z M 312.811 240.706 L 337.367 214.485 L 337.367 307.298 L 349.853 307.298 L 349.853 199.502 C 349.853 196.797 348.396 194.508 345.899 193.467 C 345.587 193.363 345.379 193.259 345.171 193.259 C 344.65 193.259 344.13 193.467 343.61 193.467 C 342.153 193.467 340.488 193.883 339.24 195.132 L 306.152 229.052 L 273.896 195.548 C 272.648 194.3 270.983 193.467 269.526 193.467 C 268.694 193.467 268.07 193.675 267.237 194.092 C 264.74 195.132 263.283 197.213 263.283 199.918 L 263.283 307.298 L 275.769 307.298 L 275.769 214.902 L 300.117 240.706 L 300.117 256.522 L 312.811 256.522 L 312.811 240.706 Z M 375.639 193.259 L 375.639 307.506 L 462.208 307.506 L 462.208 295.02 L 387.916 295.02 L 387.916 256.313 L 437.444 256.313 L 437.444 243.619 L 387.916 243.619 L 387.916 205.953 L 462.208 205.953 L 462.208 193.259 L 375.639 193.259 Z" style="fill: rgb(255, 255, 255);"/>
</svg>