<?xml version="1.0" encoding="utf-8"?>
<svg viewBox="0 0 500 500" xmlns="http://www.w3.org/2000/svg">
  <defs/>
  <g>
    <g>
      <g>
        <path d="M 104.539 365.079 L 193.697 450.837 L 190.935 474.285 L 101.777 388.528 L 104.539 365.079 Z" style="stroke: rgb(0, 0, 0); fill: rgb(181, 181, 181); transform-origin: 116.39px 454.178px;"/>
        <path style="stroke: rgb(0, 0, 0); fill: rgb(112, 112, 112);" d="M 415.881 262.709 L 418.306 262.304 C 418.306 262.304 350.803 184.696 272.791 247.753 C 194.779 310.81 196.799 253.412 196.799 253.412 L 201.245 252.199 C 201.245 252.199 199.629 304.342 269.153 242.902 C 338.677 181.462 424.872 252.095 426.39 261.496 C 427.908 270.897 416.689 262.709 415.881 262.709 Z"/>
        <path style="stroke: rgb(0, 0, 0); fill: rgb(181, 181, 181);" d="M 408.201 271.367 L 431.418 308.727 C 431.418 308.727 472.175 333.091 476.819 304.504 C 481.462 275.916 448.958 261.621 446.378 262.272 C 443.799 262.922 411.812 249.601 408.201 271.367 Z"/>
        <rect x="530.823" y="70.541" width="81.901" height="12.352" style="stroke: rgb(0, 0, 0); fill: rgb(181, 181, 181); transform-origin: 571.773px 76.717px;" transform="matrix(0.950367, -0.311131, 0.829482, 0.780669, -402.390526, 216.104702)"/>
        <rect x="98.051" y="153.057" width="15.128" height="26.801" style="stroke: rgb(0, 0, 0); fill: rgb(181, 181, 181); transform-origin: 105.615px 166.456px;" transform="matrix(0.705885, 0.708327, -0.039758, 1.376766, 51.48677, 110.838338)"/>
        <path d="M 29.369 102.273 L 290.451 15.111 L 288.529 223.27 L 27.447 310.432 L 29.369 102.273 Z" style="stroke: rgb(0, 0, 0); fill: rgb(181, 181, 181); transform-origin: 313.981px 244.879px;"/>
        <path d="M 36.093 113.058 L 283.361 30.508 L 281.626 218.399 L 34.359 300.948 L 36.093 113.058 Z" style="stroke: rgb(0, 0, 0); fill: rgb(165, 233, 255); transform-origin: 295.66px 221.013px;"/>
        <path d="M 193.287 452.104 L 435.186 367.416 L 432.93 389.317 L 191.033 474.005 L 193.287 452.104 Z" style="stroke: rgb(0, 0, 0); fill: rgb(181, 181, 181); transform-origin: 543.961px 231.327px;"/>
        <path d="M 21.067 95.424 L 28.555 102.392 L 26.746 311.495 L 19.257 304.527 L 21.067 95.424 Z" style="stroke: rgb(0, 0, 0); fill: rgb(181, 181, 181); transform-origin: -28.755px 1961.44px;"/>
        <path d="M 21.715 94.904 L 283.316 7.546 L 290.381 14.728 L 28.78 102.086 L 21.715 94.904 Z" style="stroke: rgb(0, 0, 0); fill: rgb(181, 181, 181); transform-origin: 569.252px 101.295px;"/>
        <rect x="147.497" y="363.205" width="256.246" height="111.754" style="stroke: rgb(0, 0, 0); fill: rgb(181, 181, 181); transform-box: fill-box; transform-origin: 50% 50%;" transform="matrix(0.944953, -0.327205, 0.815936, 0.775722, -6.341903, -52.783872)"/>
        <path d="M 137.861 382.831 L 353.115 310.607 L 414.659 364.904 L 199.405 437.128 L 137.861 382.831 Z" style="stroke: rgb(0, 0, 0); fill: rgb(135, 135, 135); transform-origin: 385.722px 239.047px;"/>
        <path d="M 123.734 366.611 L 341.27 293.621 L 349.816 301.161 L 132.279 374.15 L 123.734 366.611 Z" style="stroke: rgb(0, 0, 0); fill: rgb(135, 135, 135); transform-origin: 401.314px 81.344px;"/>
        <rect x="182.202" y="261.097" width="28.112" height="45.72" style="stroke: rgb(0, 0, 0); fill: rgb(181, 181, 181); transform-box: fill-box; transform-origin: 50% 50%;" transform="matrix(0.950367, -0.311131, -0.030676, 1.062268, -20.504331, 1.331406)"/>
        <rect x="522.91" y="70.541" width="80.68" height="12.352" style="stroke: rgb(0, 0, 0); fill: rgb(181, 181, 181); transform-origin: 563.25px 76.717px;" transform="matrix(0.950367, -0.311131, -0.030676, 1.062268, -388.53461, 227.144687)"/>
        <rect x="98.051" y="53.436" width="15.128" height="9.357" style="stroke: rgb(0, 0, 0); fill: rgb(181, 181, 181); transform-origin: 105.615px 58.114px;" transform="matrix(0.705885, 0.708327, -0.039758, 1.376766, 24.748835, 254.018733)"/>
        <path style="fill: rgb(216, 216, 216); stroke: rgb(0, 0, 0);" d="M 410.006 266.235 L 425.183 286.122 C 425.183 286.122 440.841 259.674 458.939 268.852 C 477.037 278.03 421.509 240.551 410.006 266.235 Z"/>
      </g>
    </g>
  </g>
</svg>