<?xml version="1.0" encoding="utf-8"?>
<svg viewBox="0 0 500 500" xmlns="http://www.w3.org/2000/svg">
  <defs/>
  <rect x="326" y="34.906" width="209.087" height="142.337" style="stroke: rgb(0, 0, 0); fill: rgb(181, 181, 181); transform-origin: 430.546px 106.074px;" transform="matrix(0.817246, 0.576289, -0.045336, 1.191652, -320.358056, 163.43085)"/>
  <rect x="470.8" y="36.667" width="301.954" height="149.514" style="stroke: rgb(0, 0, 0); fill: rgb(181, 181, 181); transform-origin: 621.778px 111.421px;" transform="matrix(0.913819, -0.406121, -0.048287, 1.115768, -288.672186, 158.389987)"/>
  <rect x="468.812" y="44.527" width="300.681" height="181.569" style="stroke: rgb(0, 0, 0); fill: rgb(181, 181, 181); transform-box: fill-box; transform-origin: 50% 50%;" transform="matrix(0.914746, -0.404029, 0.955485, 0.671177, -368.354491, -9.558287)"/>
  <rect x="272.315" y="251.071" width="12.542" height="138.105" style="fill: rgb(165, 233, 255); stroke: rgb(165, 233, 255); transform-box: fill-box; transform-origin: 50% 50%;" transform="matrix(0.249012, -0.9685, 0.9685, 0.249012, 311.28223, -131.64547)"/>
  <rect x="42.643" y="6.376" width="27.349" height="25.999" style="fill: rgb(135, 135, 135); stroke: rgb(135, 135, 135); transform-origin: 56.317px 19.375px;" transform="matrix(0.913819, -0.406121, -0.048287, 1.115768, 221.769794, 332.540153)"/>
  <rect x="42.643" y="6.376" width="27.349" height="25.999" style="fill: rgb(135, 135, 135); stroke: rgb(135, 135, 135); transform-origin: 56.317px 19.375px;" transform="matrix(0.913819, -0.406121, -0.048287, 1.115768, 255.412618, 316.788299)"/>
  <rect x="42.643" y="6.376" width="27.349" height="25.999" style="fill: rgb(135, 135, 135); stroke: rgb(135, 135, 135); transform-origin: 56.317px 19.375px;" transform="matrix(0.913819, -0.406121, -0.048287, 1.115768, 290.752002, 299.769035)"/>
  <rect x="42.643" y="6.376" width="27.349" height="25.999" style="fill: rgb(135, 135, 135); stroke: rgb(135, 135, 135); transform-origin: 56.317px 19.375px;" transform="matrix(0.913819, -0.406121, -0.048287, 1.115768, 321.417438, 285.707084)"/>
</svg>