<?xml version="1.0" encoding="utf-8"?>
<svg viewBox="0 0 500 500" xmlns="http://www.w3.org/2000/svg" xmlns:bx="https://boxy-svg.com">
  <defs/>
  <rect x="326" y="11.292" width="209.087" height="46.045" style="stroke: rgb(0, 0, 0); fill: rgb(181, 181, 181); transform-origin: 430.546px 34.314px;" transform="matrix(0.817246, 0.576289, 0.011303, 1.231592, -322.134308, 293.16085)"/>
  <rect x="474.486" y="11.855" width="304.318" height="48.34" style="stroke: rgb(0, 0, 0); fill: rgb(181, 181, 181); transform-origin: 626.646px 36.024px;" transform="matrix(0.913819, -0.406121, -0.048287, 1.115768, -294.902813, 290.926006)"/>
  <rect x="468.812" y="44.527" width="300.681" height="181.569" style="stroke: rgb(0, 0, 0); fill: rgb(181, 181, 181); transform-box: fill-box; transform-origin: 50% 50%;" transform="matrix(0.914746, -0.404029, 0.955485, 0.671177, -372.404479, 104.181612)"/>
  <rect x="79.352" y="115.991" width="204.446" height="126.902" style="stroke: rgb(0, 0, 0); fill: rgb(135, 135, 135); transform-box: fill-box; transform-origin: 50% 50%;" transform="matrix(0.914872, -0.403743, 0.991028, 0.655697, 57.175834, 56.790739)"/>
  <rect x="312.43" y="192.037" width="15.714" height="104.996" style="fill: rgb(165, 233, 255); stroke: rgb(165, 233, 255); transform-box: fill-box; transform-origin: 50% 50%;" transform="matrix(0.873196, 0.487369, -1.146447, 0.505336, -100.677018, -39.502814)"/>
  <rect x="332.095" y="205.876" width="15.295" height="113.245" style="fill: rgb(165, 233, 255); stroke: rgb(165, 233, 255); transform-box: fill-box; transform-origin: 50% 50%;" transform="matrix(-0.872864, -0.487963, 1.097246, -0.532253, -78.222402, -12.449734)"/>
  <path d="M 128.158 109.216 L 147.271 141.183 L 109.044 141.183 L 128.158 109.216 Z" style="stroke: rgb(165, 233, 255); fill: rgb(165, 233, 255); transform-box: fill-box; transform-origin: 50% 50%;" transform="matrix(-0.80694, -0.590634, 1.250041, -0.324291, 18.270791, 110.613006)" bx:shape="triangle 109.044 109.216 38.227 31.967 0.5 0 1@2bcbd6e0"/>
  <path d="M 247.969 238.24 L 271.152 264.487 L 224.785 264.487 L 247.969 238.24 Z" style="fill: rgb(165, 233, 255); stroke: rgb(165, 233, 255); transform-box: fill-box; transform-origin: 50% 50%;" transform="matrix(0.803964, 0.594678, -1.089078, 0.438265, 77.061836, -33.355746)" bx:shape="triangle 224.785 238.24 46.367 26.247 0.5 0 1@349e21f1"/>
  <rect x="42.643" y="6.376" width="27.349" height="25.999" style="fill: rgb(135, 135, 135); stroke: rgb(135, 135, 135); transform-origin: 56.317px 19.375px;" transform="matrix(0.913819, -0.406121, -0.048287, 1.115768, 179.218128, 351.88137)"/>
  <rect x="42.643" y="6.376" width="27.349" height="25.999" style="fill: rgb(135, 135, 135); stroke: rgb(135, 135, 135); transform-origin: 56.317px 19.375px;" transform="matrix(0.913819, -0.406121, -0.048287, 1.115768, 224.095752, 332.74456)"/>
  <rect x="42.643" y="6.376" width="27.349" height="25.999" style="fill: rgb(135, 135, 135); stroke: rgb(135, 135, 135); transform-origin: 56.317px 19.375px;" transform="matrix(0.913819, -0.406121, -0.048287, 1.115768, 265.805835, 314.609733)"/>
  <rect x="42.643" y="6.376" width="27.349" height="25.999" style="fill: rgb(135, 135, 135); stroke: rgb(135, 135, 135); transform-origin: 56.317px 19.375px;" transform="matrix(0.913819, -0.406121, -0.048287, 1.115768, 306.306964, 295.870414)"/>
  <rect x="42.643" y="6.376" width="27.349" height="25.999" style="fill: rgb(135, 135, 135); stroke: rgb(135, 135, 135); transform-origin: 56.317px 19.375px;" transform="matrix(0.913819, -0.406121, -0.048287, 1.115768, 344.994617, 280.758049)"/>
  <rect x="42.643" y="6.376" width="27.349" height="25.999" style="fill: rgb(135, 135, 135); stroke: rgb(135, 135, 135); transform-origin: 56.317px 19.375px;" transform="matrix(0.913819, -0.406121, -0.048287, 1.115768, 383.682209, 263.227714)"/>
</svg>